<svg width="52" height="52" viewBox="0 0 52 52" fill="none" xmlns="http://www.w3.org/2000/svg">
<g filter="url(#filter0_d_27_3525)">
<rect x="2" y="1" width="48" height="48" rx="10" fill="#E9F1FD"/>
<rect x="2.5" y="1.5" width="47" height="47" rx="9.5" stroke="#EAECF0"/>
<path d="M22.5802 35.5501C22.3602 35.5501 22.1302 35.5101 21.9202 35.4201C21.4502 35.2201 21.0902 34.8301 20.9302 34.3401L20.4902 33.0201C20.2902 32.4201 20.4702 31.6701 20.9102 31.2201L23.1802 28.9401C23.2102 28.9101 23.2502 28.8001 23.2502 28.7501V26.2801L18.6902 28.2501C18.0802 28.5101 17.4602 28.4801 16.9902 28.1701C16.5202 27.8601 16.2402 27.3001 16.2402 26.6501V25.3601C16.2402 24.3801 16.9402 23.3301 17.8302 22.9801L23.2402 20.6401V17.8001C23.2402 16.5901 24.0902 15.2001 25.1702 14.6401C25.6902 14.3801 26.2902 14.3801 26.8002 14.6401C27.8902 15.2001 28.7402 16.5801 28.7402 17.7901V20.6301L34.1802 22.9701C35.0702 23.3501 35.7502 24.3701 35.7502 25.3601V26.6501C35.7502 27.3101 35.4802 27.8601 35.0002 28.1701C34.5202 28.4801 33.9102 28.5101 33.3002 28.2601L28.7402 26.2901V28.7601C28.7402 28.8001 28.7802 28.9001 28.8102 28.9301L31.0902 31.2201C31.5302 31.6601 31.7102 32.4301 31.5102 33.0201L31.0702 34.3401C30.9002 34.8301 30.5402 35.2201 30.0602 35.4101C29.5902 35.6001 29.0702 35.5801 28.6202 35.3601C28.5702 35.3301 28.5202 35.3001 28.4702 35.2601L26.1402 33.3001C26.0602 33.2301 25.9002 33.2401 25.8302 33.3001L23.5002 35.2601C23.4602 35.3001 23.4102 35.3301 23.3602 35.3501C23.1202 35.4901 22.8502 35.5501 22.5802 35.5501ZM23.5602 24.6401C23.7902 24.6401 24.0102 24.7001 24.2002 24.8301C24.5502 25.0601 24.7502 25.4501 24.7502 25.9101V28.7601C24.7502 29.1901 24.5402 29.7001 24.2402 30.0001L21.9702 32.2801C21.9302 32.3301 21.8902 32.4801 21.9102 32.5401L22.3502 33.8701C22.3802 33.9701 22.4502 34.0101 22.4902 34.0301C22.5202 34.0401 22.5702 34.0601 22.6302 34.0401L24.8702 32.1501C25.5002 31.6101 26.4902 31.6101 27.1202 32.1501L29.3502 34.0301C29.4202 34.0401 29.4702 34.0301 29.5002 34.0201C29.5402 34.0001 29.6202 33.9601 29.6502 33.8601L30.0902 32.5401C30.1102 32.4701 30.0702 32.3201 30.0302 32.2801L27.7602 30.0001C27.4602 29.7201 27.2402 29.2001 27.2402 28.7601V25.9101C27.2402 25.4601 27.4302 25.0701 27.7702 24.8401C28.1102 24.6101 28.5502 24.5801 28.9702 24.7601L33.8902 26.8801C34.0402 26.9401 34.1402 26.9401 34.1702 26.9201C34.2002 26.9001 34.2402 26.8101 34.2402 26.6501V25.3601C34.2402 24.9801 33.9202 24.4901 33.5802 24.3501L28.0002 21.9401C27.5602 21.7501 27.2502 21.2701 27.2502 20.7901V17.7901C27.2502 17.1301 26.7302 16.2801 26.1302 15.9801C26.0502 15.9401 25.9502 15.9401 25.8602 15.9801C25.2802 16.2801 24.7502 17.1501 24.7502 17.8001V20.8001C24.7502 21.2701 24.4402 21.7601 24.0002 21.9501L18.4202 24.3601C18.0702 24.5001 17.7502 24.9901 17.7502 25.3601V26.6501C17.7502 26.8101 17.7902 26.9001 17.8202 26.9201C17.8502 26.9401 17.9502 26.9401 18.1002 26.8801L23.0102 24.7601C23.1902 24.6801 23.3802 24.6401 23.5602 24.6401Z" fill="#292D32"/>
</g>
<defs>
<filter id="filter0_d_27_3525" x="0" y="0" width="52" height="52" filterUnits="userSpaceOnUse" color-interpolation-filters="sRGB">
<feFlood flood-opacity="0" result="BackgroundImageFix"/>
<feColorMatrix in="SourceAlpha" type="matrix" values="0 0 0 0 0 0 0 0 0 0 0 0 0 0 0 0 0 0 127 0" result="hardAlpha"/>
<feOffset dy="1"/>
<feGaussianBlur stdDeviation="1"/>
<feColorMatrix type="matrix" values="0 0 0 0 0.0627451 0 0 0 0 0.0941176 0 0 0 0 0.156863 0 0 0 0.05 0"/>
<feBlend mode="normal" in2="BackgroundImageFix" result="effect1_dropShadow_27_3525"/>
<feBlend mode="normal" in="SourceGraphic" in2="effect1_dropShadow_27_3525" result="shape"/>
</filter>
</defs>
</svg>
